<svg width="20" height="20" viewBox="0 0 20 20" fill="none" xmlns="http://www.w3.org/2000/svg">
<g id="Group">
<path id="Vector" d="M18 5H13V2C13 0.9 12.1 0 11 0H9C7.9 0 7 0.9 7 2V5H2C0.9 5 0 5.9 0 7V18C0 19.1 0.9 20 2 20H18C19.1 20 20 19.1 20 18V7C20 5.9 19.1 5 18 5ZM7 10C7.83 10 8.5 10.67 8.5 11.5C8.5 12.33 7.83 13 7 13C6.17 13 5.5 12.33 5.5 11.5C5.5 10.67 6.17 10 7 10ZM10 16H4V15.57C4 14.97 4.36 14.42 4.92 14.18C5.56 13.9 6.26 13.75 7 13.75C7.74 13.75 8.44 13.9 9.08 14.18C9.63 14.42 10 14.96 10 15.57V16ZM11 7H9V2H11V7ZM15.25 14.5H12.75C12.34 14.5 12 14.16 12 13.75C12 13.34 12.34 13 12.75 13H15.25C15.66 13 16 13.34 16 13.75C16 14.16 15.66 14.5 15.25 14.5ZM15.25 11.5H12.75C12.34 11.5 12 11.16 12 10.75C12 10.34 12.34 10 12.75 10H15.25C15.66 10 16 10.34 16 10.75C16 11.16 15.66 11.5 15.25 11.5Z" fill="white"/>
</g>
</svg>
